<svg width="426" height="263" viewBox="0 0 426 263" fill="none" xmlns="http://www.w3.org/2000/svg">
<path d="M333.85 39.8158C334.153 40.0553 365.279 54.407 381.99 82.9133C398.701 111.42 381.567 87.6596 365.138 72.4628C351.688 60.0266 322.942 43.7946 326.203 39.8158C329.463 35.8371 333.85 39.8158 333.85 39.8158Z" fill="#B2E7FE"/>
<path d="M367.539 253.5C367.539 253.5 406.271 201.854 392.187 130.602C378.103 59.3505 303.457 41.7947 253.458 69.9207C203.459 98.0467 133.039 106.758 106.983 50.6536C80.9274 -5.45055 -17.6615 115.941 43.6045 253.465L367.539 253.5Z" fill="#B2E7FE"/>
<path d="M71.1671 253.5C71.1671 253.5 40.6538 181.291 96.6523 155.292C152.651 129.292 101.117 227.719 158.038 223.952C180.185 222.48 222.205 192.967 209.572 125.968C202.051 86.0751 290.422 109.863 305.154 253.5H71.1671Z" fill="white"/>
<path d="M389.722 102.49C389.722 102.49 392.067 109.828 394.067 111.236C396.067 112.645 396.412 108.3 394.067 104.075C391.722 99.8495 388.539 99.2438 389.722 102.49Z" fill="#B2E7FE"/>
<path d="M33.7456 193.009C33.7456 193.009 28.1119 163.475 33.7456 140.405C39.3792 117.335 35.999 147.447 36.0906 161.531C36.2103 178.608 39.3792 215.163 33.7456 193.009Z" fill="white"/>
<path d="M36.5624 124.968C36.5624 124.968 36.6258 117.926 38.3863 116.398C40.1468 114.87 39.1398 123.94 38.3863 125.736C37.499 127.842 36.4568 127.088 36.5624 124.968Z" fill="white"/>
<path d="M334.759 212.128C337.11 209.66 340.149 207.958 343.481 207.242C346.814 206.526 350.284 206.83 353.441 208.114C353.441 208.114 358.673 201.945 364.709 204.417C364.709 204.417 371.391 192.755 388.321 191.615C406.045 190.417 414.721 204.29 414.721 204.29C414.721 204.29 432.27 199.164 439.207 212.121L334.759 212.128Z" fill="white"/>
<path d="M91.399 92.2299C89.344 90.0683 86.6854 88.5762 83.7698 87.9481C80.8542 87.32 77.817 87.5851 75.0543 88.7089C75.0543 88.7089 70.477 83.3077 65.1954 85.4696C65.1954 85.4696 59.3435 75.2656 44.534 74.2656C29.0415 73.2164 21.429 85.3639 21.429 85.3639C21.429 85.3639 6.0773 80.8781 0 92.2159L91.399 92.2299Z" fill="white"/>
<path d="M404.341 253.5H23.7036C21.0822 253.5 18.9572 255.625 18.9572 258.247V258.254C18.9572 260.875 21.0822 263 23.7036 263H404.341C406.963 263 409.088 260.875 409.088 258.254V258.247C409.088 255.625 406.963 253.5 404.341 253.5Z" fill="#37BDB4"/>
<path d="M404.341 258.254H23.7036C22.8719 258.25 22.0557 258.028 21.3365 257.611C20.6173 257.193 20.0203 256.594 19.6051 255.873C19.1822 256.595 18.9586 257.417 18.9572 258.254C18.9609 259.511 19.4622 260.716 20.3515 261.606C21.2408 262.495 22.4459 262.996 23.7036 263H404.341C405.599 262.996 406.804 262.495 407.693 261.606C408.583 260.716 409.084 259.511 409.088 258.254C409.086 257.417 408.863 256.595 408.44 255.873C408.025 256.594 407.428 257.193 406.708 257.611C405.989 258.028 405.173 258.25 404.341 258.254Z" fill="#268594"/>
<path d="M134.63 42.8298C146.457 42.8298 156.045 33.2421 156.045 21.4149C156.045 9.58779 146.457 0 134.63 0C122.803 0 113.215 9.58779 113.215 21.4149C113.215 33.2421 122.803 42.8298 134.63 42.8298Z" fill="#FFB75B"/>
<path d="M149.771 6.2674C152.276 10.7822 153.067 16.05 151.997 21.1013C150.927 26.1526 148.068 30.6475 143.947 33.7587C139.827 36.8699 134.721 38.388 129.569 38.0336C124.418 37.6793 119.568 35.4763 115.912 31.8301C117.404 34.5027 119.451 36.8246 121.915 38.6393C124.38 40.454 127.205 41.7193 130.2 42.35C133.195 42.9807 136.29 42.9621 139.277 42.2955C142.264 41.6289 145.074 40.3298 147.516 38.4856C149.959 36.6415 151.978 34.2952 153.437 31.6048C154.896 28.9145 155.762 25.9427 155.975 22.8896C156.189 19.8364 155.746 16.773 154.675 13.9057C153.605 11.0383 151.933 8.43374 149.771 6.2674Z" fill="#F99D41"/>
<path d="M359.765 10.0913H245.353C242.373 10.0913 239.958 12.5064 239.958 15.4855V176.573C239.958 179.552 242.373 181.967 245.353 181.967H359.765C362.744 181.967 365.159 179.552 365.159 176.573V15.4855C365.159 12.5064 362.744 10.0913 359.765 10.0913Z" stroke="#D7F5FF" stroke-miterlimit="10"/>
<path d="M354.821 15.0348H240.409C237.43 15.0348 235.015 17.4499 235.015 20.429V181.516C235.015 184.495 237.43 186.91 240.409 186.91H354.821C357.801 186.91 360.216 184.495 360.216 181.516V20.429C360.216 17.4499 357.801 15.0348 354.821 15.0348Z" fill="#D7F5FF"/>
<path d="M235.015 157.475V181.509C235.015 182.94 235.583 184.312 236.595 185.324C237.606 186.335 238.978 186.903 240.409 186.903H354.821C356.252 186.903 357.624 186.335 358.636 185.324C359.647 184.312 360.216 182.94 360.216 181.509V157.475H235.015Z" fill="#1E8CEB"/>
<path d="M297.619 180.066C301.78 180.066 305.154 176.692 305.154 172.531C305.154 168.369 301.78 164.996 297.619 164.996C293.457 164.996 290.084 168.369 290.084 172.531C290.084 176.692 293.457 180.066 297.619 180.066Z" stroke="white" stroke-width="0.75" stroke-miterlimit="10"/>
<path d="M297.619 168.826C297.8 168.826 297.974 168.896 298.105 169.02C298.236 169.145 298.314 169.315 298.323 169.495V171.918C298.323 172.095 298.252 172.266 298.127 172.391C298.002 172.516 297.831 172.587 297.654 172.587C297.477 172.587 297.306 172.516 297.181 172.391C297.055 172.266 296.985 172.095 296.985 171.918V169.495C296.994 169.321 297.067 169.156 297.19 169.032C297.314 168.908 297.479 168.835 297.654 168.826H297.619ZM297.654 168.298C297.336 168.298 297.032 168.424 296.807 168.649C296.583 168.873 296.457 169.178 296.457 169.495V171.918C296.457 172.235 296.583 172.54 296.807 172.764C297.032 172.989 297.336 173.115 297.654 173.115C297.971 173.115 298.276 172.989 298.5 172.764C298.725 172.54 298.851 172.235 298.851 171.918V169.495C298.851 169.178 298.725 168.873 298.5 168.649C298.276 168.424 297.971 168.298 297.654 168.298Z" fill="white"/>
<path d="M295.253 170.89V171.594C295.253 172.222 295.502 172.823 295.946 173.267C296.389 173.711 296.991 173.96 297.619 173.96V173.96V176.411" stroke="white" stroke-width="0.75" stroke-miterlimit="10"/>
<path d="M299.978 170.89V171.594C299.978 172.22 299.73 172.821 299.287 173.265C298.845 173.708 298.245 173.958 297.619 173.96" stroke="white" stroke-width="0.75" stroke-miterlimit="10"/>
<path d="M296.563 176.425H298.703" stroke="white" stroke-width="0.75" stroke-miterlimit="10"/>
<path d="M263.894 180.066C268.056 180.066 271.429 176.692 271.429 172.531C271.429 168.369 268.056 164.996 263.894 164.996C259.733 164.996 256.359 168.369 256.359 172.531C256.359 176.692 259.733 180.066 263.894 180.066Z" stroke="white" stroke-width="0.75" stroke-miterlimit="10"/>
<path d="M266.838 170.517H261C260.8 170.517 260.609 170.596 260.467 170.737C260.326 170.879 260.247 171.07 260.247 171.27V174.291C260.247 174.491 260.326 174.683 260.467 174.824C260.609 174.965 260.8 175.045 261 175.045H266.838C267.038 175.045 267.229 174.965 267.371 174.824C267.512 174.683 267.591 174.491 267.591 174.291V171.27C267.591 171.07 267.512 170.879 267.371 170.737C267.229 170.596 267.038 170.517 266.838 170.517V170.517ZM263.922 173.869C263.708 173.869 263.498 173.805 263.32 173.686C263.142 173.567 263.003 173.397 262.921 173.199C262.838 173.001 262.817 172.783 262.859 172.573C262.901 172.362 263.004 172.169 263.156 172.017C263.307 171.866 263.501 171.762 263.711 171.721C263.921 171.679 264.139 171.7 264.337 171.782C264.536 171.864 264.705 172.003 264.824 172.182C264.943 172.36 265.007 172.57 265.007 172.784C265.007 172.929 264.978 173.072 264.922 173.206C264.866 173.339 264.783 173.46 264.679 173.561C264.576 173.662 264.453 173.741 264.318 173.794C264.183 173.847 264.039 173.872 263.894 173.869H263.922Z" stroke="white" stroke-width="0.75" stroke-miterlimit="10"/>
<path d="M262.578 169.869H260.972V170.517H262.578V169.869Z" fill="white"/>
<path d="M331.343 180.066C335.505 180.066 338.878 176.692 338.878 172.531C338.878 168.369 335.505 164.996 331.343 164.996C327.182 164.996 323.808 168.369 323.808 172.531C323.808 176.692 327.182 180.066 331.343 180.066Z" stroke="white" stroke-width="0.75" stroke-miterlimit="10"/>
<path d="M331.343 175.678C330.943 175.698 330.543 175.636 330.168 175.496C329.792 175.357 329.449 175.142 329.159 174.866C328.869 174.59 328.638 174.258 328.481 173.889C328.323 173.521 328.241 173.125 328.241 172.724C328.241 172.324 328.323 171.927 328.481 171.559C328.638 171.191 328.869 170.859 329.159 170.582C329.449 170.306 329.792 170.092 330.168 169.952C330.543 169.812 330.943 169.751 331.343 169.77V170.474C330.9 170.473 330.466 170.603 330.097 170.849C329.727 171.094 329.439 171.444 329.269 171.853C329.098 172.263 329.053 172.714 329.14 173.149C329.226 173.584 329.439 173.984 329.753 174.297C330.066 174.611 330.466 174.824 330.901 174.91C331.336 174.997 331.787 174.952 332.197 174.781C332.606 174.611 332.956 174.323 333.201 173.953C333.447 173.584 333.577 173.15 333.576 172.707C333.573 172.407 333.509 172.112 333.388 171.838C333.267 171.565 333.091 171.318 332.871 171.115L333.378 170.594C333.798 171.005 334.085 171.531 334.205 172.106C334.324 172.681 334.269 173.278 334.048 173.821C333.827 174.365 333.449 174.831 332.962 175.159C332.475 175.487 331.902 175.663 331.315 175.664L331.343 175.678Z" fill="white"/>
<path d="M332.871 170.129L331.231 171.08V169.179L332.871 170.129Z" fill="white"/>
<path d="M243.31 23.943L245.838 21.4149L246.43 22.0065L244.493 23.943L246.43 25.8866L245.838 26.4782L243.31 23.943Z" fill="#1362C9"/>
<path d="M284.373 88.7723C284.373 88.7723 300.893 95.6031 303.386 76.4909C305.879 57.3788 289.415 43.0904 273.465 49.1677C273.465 49.1677 261.19 50.8578 263.38 65.1884C265.57 79.519 262.359 82.4133 263.12 86.4625C263.88 90.5117 271.134 91.2581 284.373 88.7723Z" fill="#233770"/>
<path d="M268.796 77.2726C268.796 77.2726 270.767 85.6104 271.725 90.2018C272.683 94.7932 282.992 86.4625 282.992 86.4625C282.992 86.4625 285.302 82.7794 283.76 81.2091C282.218 79.6387 280.521 77.8148 278.049 77.2726C275.577 76.7303 271.859 75.8148 271.07 75.9698C270.251 76.2874 269.484 76.7266 268.796 77.2726Z" fill="#162956"/>
<path d="M259.676 157.475C266.014 126.968 261.683 90.1455 261.683 90.1455L284.309 86.4625L305.668 89.3568L310.147 157.475H259.676Z" fill="#4EB0F9"/>
<path d="M300.407 107.708H298.999V107.089H298.034V105.835H296.584V107.089H295.605V107.708H294.196C294.135 107.707 294.074 107.719 294.017 107.742C293.961 107.765 293.909 107.799 293.866 107.842C293.822 107.886 293.788 107.937 293.765 107.994C293.742 108.051 293.731 108.112 293.732 108.173V116.934C293.731 116.995 293.742 117.056 293.765 117.114C293.788 117.171 293.822 117.223 293.865 117.267C293.908 117.311 293.96 117.346 294.017 117.369C294.074 117.393 294.135 117.405 294.196 117.405H300.393C300.517 117.403 300.635 117.353 300.722 117.265C300.809 117.176 300.858 117.057 300.858 116.934V108.173C300.858 108.052 300.811 107.936 300.727 107.849C300.643 107.763 300.528 107.712 300.407 107.708Z" fill="#1E8CEB"/>
<path d="M299.992 107.286H293.788C293.531 107.286 293.323 107.494 293.323 107.751V116.518C293.323 116.775 293.531 116.983 293.788 116.983H299.992C300.249 116.983 300.457 116.775 300.457 116.518V107.751C300.457 107.494 300.249 107.286 299.992 107.286Z" fill="white"/>
<path d="M298.591 106.673H295.182V107.927H298.591V106.673Z" fill="#1E8CEB"/>
<path d="M297.619 105.42H296.161V107.3H297.619V105.42Z" fill="#80CFFF"/>
<path d="M299.541 112.511H294.239V112.969H299.541V112.511Z" fill="#4EB0F9"/>
<path d="M299.541 113.434H294.239V113.891H299.541V113.434Z" fill="#4EB0F9"/>
<path d="M299.541 114.356H294.239V114.814H299.541V114.356Z" fill="#4EB0F9"/>
<path d="M299.541 115.286H294.239V115.743H299.541V115.286Z" fill="#4EB0F9"/>
<path d="M297.302 108.962H296.478V111.842H297.302V108.962Z" fill="#4EB0F9"/>
<path d="M298.33 109.99H295.45V110.814H298.33V109.99Z" fill="#4EB0F9"/>
<path d="M271.725 90.2018L277.169 117.926" stroke="#1E8CEB" stroke-miterlimit="10"/>
<path d="M291.999 92.1031L281.014 116.983" stroke="#1E8CEB" stroke-miterlimit="10"/>
<path d="M295.971 122.645L287.084 129.412C287.084 129.412 285.323 127.447 285.323 126.701C285.323 125.954 284.415 123.56 285.661 122.912C286.908 122.264 295.971 122.645 295.971 122.645Z" fill="#1E8CEB"/>
<path d="M288.837 132.144L286.725 128.827C286.208 128.037 285.549 127.35 284.781 126.799C283.887 126.335 276.507 128.813 271.943 129.363C269.62 129.644 266.049 130.201 262.859 130.771C262.704 134.046 262.472 137.384 262.155 140.743L288.837 132.144Z" fill="#1E8CEB"/>
<path d="M278.584 115.645L291.485 87.4343L284.309 86.4625L273.457 88.23L278.584 115.645Z" fill="#2C4784"/>
<path d="M291.084 73.8642L285.661 91.1595C285.36 92.1171 284.761 92.9537 283.952 93.5477C283.143 94.1417 282.165 94.4621 281.161 94.4623C280.525 94.462 279.894 94.3326 279.309 94.0819C278.723 93.8312 278.195 93.4643 277.755 93.0036C277.315 92.5428 276.974 91.9977 276.751 91.4012C276.528 90.8046 276.428 90.169 276.457 89.5328L276.802 81.9696L291.084 73.8642Z" fill="#FFA9A8"/>
<path d="M276.542 87.7371C286.957 87.0329 289.471 77.0472 289.471 77.0472L286.457 76.4909L276.802 81.9767L276.542 87.7371Z" fill="#F48989"/>
<path d="M291.084 73.8642C291.084 73.8642 295.14 72.8572 294.605 68.6531C294.07 64.449 290.718 64.9912 289.605 67.2799C289.185 68.1566 288.911 69.0963 288.795 70.0615L287.992 69.977C287.992 69.977 286.063 62.8011 283.316 61.0899C280.57 59.3787 270.591 60.0547 268.613 60.9068C266.422 61.8434 266.584 79.2725 272.641 83.6879C278.697 88.1033 288.753 80.6317 291.084 73.8642Z" fill="#FFA9A8"/>
<path d="M283.387 68.6249H286.781" stroke="white" stroke-width="0.5" stroke-miterlimit="10"/>
<path d="M273.612 68.6953C273.612 68.6953 274.873 67.9066 275.852 68.6953" stroke="white" stroke-width="0.5" stroke-miterlimit="10"/>
<path d="M279.542 70.6671C280.086 70.6671 280.528 70.2257 280.528 69.6812C280.528 69.1367 280.086 68.6953 279.542 68.6953C278.997 68.6953 278.556 69.1367 278.556 69.6812C278.556 70.2257 278.997 70.6671 279.542 70.6671Z" fill="#233770"/>
<path d="M279.993 68.8362C280.457 68.8394 280.919 68.7778 281.366 68.6531C281.69 68.4841 281.049 69.1531 280.408 69.2164C280.056 69.2517 280.718 69.3291 281.042 69.2164C281.366 69.1038 280.69 69.6953 280.239 69.6812C279.788 69.6671 279.993 68.8362 279.993 68.8362Z" fill="#233770"/>
<path d="M270.451 68.8855C270.912 68.8887 271.372 68.8271 271.817 68.7024C272.141 68.5334 271.507 69.2024 270.866 69.2658C270.514 69.301 271.176 69.3784 271.5 69.2658C271.824 69.1531 271.148 69.7446 270.697 69.7305C270.246 69.7164 270.451 68.8855 270.451 68.8855Z" fill="#233770"/>
<path d="M270.232 70.5333C270.703 70.5333 271.084 70.1518 271.084 69.6812C271.084 69.2106 270.703 68.8291 270.232 68.8291C269.762 68.8291 269.38 69.2106 269.38 69.6812C269.38 70.1518 269.762 70.5333 270.232 70.5333Z" fill="#233770"/>
<path d="M274.746 70.0615C273.807 71.4386 272.956 72.8733 272.197 74.3572C271.831 75.3853 274.746 75.2163 274.746 75.2163V70.0615Z" fill="#F48989"/>
<path d="M271.725 77.2726H278.584C278.584 77.2726 274.795 83.7583 271.725 77.2726Z" fill="white"/>
<path d="M281.563 67.9489C280.452 67.5801 279.281 67.4225 278.112 67.4841L278.063 66.5053C279.369 66.43 280.676 66.6069 281.915 67.0264L281.563 67.9489Z" fill="#233770"/>
<path d="M268.246 67.9489L267.894 67.0264C269.133 66.6069 270.441 66.43 271.746 66.5053L271.697 67.4841C270.528 67.4225 269.357 67.5801 268.246 67.9489Z" fill="#233770"/>
<path d="M290.739 68.3785C290.739 68.3785 291.675 67.1461 292.57 67.4841C293.464 67.8222 293.703 70.808 291.865 71.8573C291.865 71.8573 292.872 69.9489 292.337 68.9348C292.186 68.6614 291.939 68.4534 291.644 68.3507C291.349 68.2481 291.027 68.258 290.739 68.3785Z" fill="#F48989"/>
<path d="M323.822 109.997L328.991 114.863C329.061 114.93 329.147 114.977 329.241 115.002C329.334 115.027 329.433 115.028 329.526 115.005C329.62 114.982 329.707 114.935 329.778 114.87C329.85 114.804 329.904 114.722 329.935 114.631L337.801 91.1313L345.85 94.3003L337.857 121.363C337.469 122.686 336.75 123.889 335.768 124.857C334.786 125.825 333.574 126.527 332.245 126.896C330.917 127.265 329.516 127.29 328.175 126.968C326.834 126.645 325.598 125.986 324.583 125.053L316.52 117.659L323.822 109.997Z" fill="#FFA9A8"/>
<path d="M316.527 117.659L319.555 120.433L323.879 110.06L323.752 110.025L316.527 117.659Z" fill="#F48989"/>
<path d="M305.668 89.3568L325.949 107.934L314.731 119.715L296.886 99.3706L305.668 89.3568Z" fill="#4EB0F9"/>
<path d="M306.464 101.455L307.09 111.004L314.731 119.715L306.464 101.455Z" fill="#1E8CEB"/>
<path d="M257.852 118.687L253.043 126.37C253.014 126.463 253.01 126.561 253.03 126.656C253.05 126.751 253.093 126.84 253.157 126.913C253.22 126.987 253.301 127.044 253.391 127.078C253.482 127.112 253.58 127.123 253.676 127.109L280.218 123.384L281.021 131.996L250.036 137.363C248.525 137.657 246.961 137.505 245.535 136.925C244.109 136.346 242.882 135.363 242.005 134.099C241.127 132.834 240.637 131.341 240.594 129.802C240.551 128.263 240.956 126.745 241.761 125.433L247.775 114.99L257.852 118.687Z" fill="#FFA9A8"/>
<path d="M247.824 114.99L247.712 115.046L247.641 115.166L254.634 123.778L257.726 118.849C257.726 118.771 257.726 118.687 257.69 118.609L247.824 114.99Z" fill="#F48989"/>
<path d="M271.429 100.645L259.092 121.419L245.458 113.962L261.683 90.1455L271.429 100.645Z" fill="#4EB0F9"/>
<path d="M247.655 113.229L258.683 119.046" stroke="#1E8CEB" stroke-miterlimit="10"/>
<path d="M323.231 107.476L315.428 116.046" stroke="#1E8CEB" stroke-miterlimit="10"/>
<path d="M262.958 108.983L259.092 121.412L263.099 114.673C263.07 112.701 263.021 110.765 262.958 108.983Z" fill="#1E8CEB"/>
<path d="M266.479 64.4912C266.479 64.4912 275.563 64.2941 280.19 64.4912L281.014 62.2026L281.683 64.4912C281.683 64.4912 285.021 64.5898 286.563 64.4912C288.105 64.3927 288.021 56.9774 281.915 55.9844C276.373 55.076 266.359 53.8929 266.479 64.4912Z" fill="#233770"/>
<path d="M269.824 72.991C271.916 72.991 273.612 71.2948 273.612 69.2024C273.612 67.11 271.916 65.4138 269.824 65.4138C267.731 65.4138 266.035 67.11 266.035 69.2024C266.035 71.2948 267.731 72.991 269.824 72.991Z" stroke="white" stroke-width="0.5" stroke-miterlimit="10"/>
<path d="M279.64 72.991C281.733 72.991 283.429 71.2948 283.429 69.2024C283.429 67.11 281.733 65.4138 279.64 65.4138C277.548 65.4138 275.852 67.11 275.852 69.2024C275.852 71.2948 277.548 72.991 279.64 72.991Z" stroke="white" stroke-width="0.5" stroke-miterlimit="10"/>
<path d="M285.964 64.5335C285.964 64.5335 290.013 79.7796 283.739 85.6104C277.464 91.4412 295.408 92.7018 299.816 85.9062C304.224 79.1106 305.104 63.78 298.407 61.8998C291.71 60.0195 285.964 64.5335 285.964 64.5335Z" fill="#233770"/>
<path d="M349.23 75.4768C349.23 75.4768 353.054 76.181 351.096 82.6034C349.808 86.8286 345.864 94.3003 345.864 94.3003L337.815 91.1313L334.202 83.3358L349.23 75.4768Z" fill="#FFA9A8"/>
<path d="M327.948 47.3403L317.127 82.0806C316.947 82.6599 317.27 83.2757 317.849 83.4562L343.163 91.3406C343.743 91.521 344.359 91.1977 344.539 90.6184L355.359 55.8781C355.54 55.2988 355.216 54.683 354.637 54.5026L329.323 46.6182C328.744 46.4377 328.128 46.7611 327.948 47.3403Z" fill="#1E8CEB"/>
<path d="M329.289 50.3986L319.968 80.3249C319.822 80.7928 320.084 81.2902 320.551 81.4359L342.093 88.1455C342.561 88.2912 343.059 88.0301 343.204 87.5622L352.525 57.636C352.671 57.1681 352.41 56.6707 351.942 56.5249L330.4 49.8153C329.932 49.6696 329.435 49.9308 329.289 50.3986Z" fill="white"/>
<path d="M330.644 55.8125L329.371 59.9004L333.459 61.1737L334.732 57.0858L330.644 55.8125Z" fill="#1E8CEB"/>
<path d="M328.549 62.5445L328.168 63.7682L345.864 69.28L346.245 68.0563L328.549 62.5445Z" fill="#1E8CEB"/>
<path d="M327.83 64.8426L327.449 66.0663L345.145 71.578L345.526 70.3544L327.83 64.8426Z" fill="#1E8CEB"/>
<path d="M327.118 67.1498L326.737 68.3735L344.433 73.8852L344.814 72.6616L327.118 67.1498Z" fill="#1E8CEB"/>
<path d="M326.399 69.4499L326.017 70.6736L343.714 76.1854L344.095 74.9617L326.399 69.4499Z" fill="#1E8CEB"/>
<path d="M325.682 71.7413L325.301 72.9649L342.997 78.4767L343.378 77.253L325.682 71.7413Z" fill="#1E8CEB"/>
<path d="M324.245 76.3502L323.864 77.5739L329.687 79.3874L330.068 78.1637L324.245 76.3502Z" fill="#1E8CEB"/>
<path d="M336.123 80.0501L335.742 81.2737L341.564 83.0873L341.945 81.8636L336.123 80.0501Z" fill="#1E8CEB"/>
<path d="M336.23 50.0145L335.426 52.5963L346.23 55.9615L347.034 53.3797L336.23 50.0145Z" fill="#1E8CEB"/>
<path d="M337.591 47.9547L336.676 50.8929L346.17 53.8498L347.085 50.9116L337.591 47.9547Z" fill="#4EB0F9"/>
<path d="M340.542 47.2348L339.838 49.4939L344.363 50.9032L345.067 48.6442L340.542 47.2348Z" fill="#1E8CEB"/>
<path d="M346.616 74.8291C345.872 74.6805 345.149 75.1614 345.001 75.9032C344.853 76.645 345.335 77.3668 346.079 77.5154L348.158 77.9307C348.901 78.0794 349.625 77.5985 349.773 76.8567C349.921 76.1149 349.438 75.3931 348.695 75.2445L346.616 74.8291Z" fill="#FFA9A8"/>
<path d="M346.077 77.5288C345.334 77.3802 344.61 77.8611 344.462 78.6029C344.314 79.3447 344.797 80.0665 345.54 80.2151L347.619 80.6304C348.363 80.779 349.086 80.2982 349.234 79.5564C349.382 78.8146 348.899 78.0928 348.156 77.9442L346.077 77.5288Z" fill="#FFA9A8"/>
<path d="M345.54 80.2145C344.796 80.0659 344.073 80.5468 343.925 81.2885C343.777 82.0303 344.26 82.7522 345.003 82.9008L347.082 83.3161C347.826 83.4647 348.549 82.9838 348.697 82.242C348.845 81.5002 348.362 80.7784 347.619 80.6298L345.54 80.2145Z" fill="#FFA9A8"/>
<path d="M344.997 82.8539C344.253 82.7053 343.53 83.1861 343.382 83.9279C343.234 84.6697 343.716 85.3915 344.46 85.5401L346.539 85.9555C347.282 86.1041 348.005 85.6232 348.154 84.8814C348.302 84.1396 347.819 83.4178 347.075 83.2692L344.997 82.8539Z" fill="#FFA9A8"/>
<path d="M294.766 120.373L282.306 122.235C281.556 122.348 281.038 123.045 281.15 123.793C281.262 124.541 281.961 125.057 282.711 124.945L295.171 123.083C295.921 122.97 296.438 122.273 296.326 121.525C296.214 120.777 295.516 120.261 294.766 120.373Z" fill="#FFA9A8"/>
<path d="M288.232 124.028L282.681 124.858C281.931 124.97 281.413 125.667 281.525 126.415C281.637 127.163 282.336 127.679 283.086 127.567L288.637 126.737C289.387 126.625 289.904 125.928 289.792 125.18C289.681 124.432 288.982 123.916 288.232 124.028Z" fill="#FFA9A8"/>
<path d="M289.038 126.158L283.481 127C282.73 127.113 282.214 127.813 282.327 128.562C282.441 129.311 283.141 129.825 283.892 129.712L289.449 128.87C290.199 128.756 290.716 128.057 290.603 127.308C290.489 126.559 289.788 126.044 289.038 126.158Z" fill="#FFA9A8"/>
<path d="M288.425 129.448L282.874 130.277C282.124 130.389 281.606 131.087 281.718 131.835C281.83 132.583 282.529 133.098 283.279 132.986L288.829 132.157C289.58 132.045 290.097 131.347 289.985 130.599C289.873 129.851 289.175 129.335 288.425 129.448Z" fill="#FFA9A8"/>
<path d="M285.752 119.08L282.165 119.616C281.415 119.728 280.898 120.425 281.01 121.173C281.121 121.921 281.82 122.437 282.57 122.325L286.157 121.789C286.907 121.677 287.425 120.979 287.313 120.231C287.201 119.483 286.502 118.967 285.752 119.08Z" fill="#FFA9A8"/>
<path d="M281.514 119.919L275.662 124.032L277.162 132.736C279.074 133.253 281.075 133.349 283.028 133.018C283.62 132.02 284.008 130.914 284.168 129.764C284.274 128.222 283.774 123.243 283.774 123.243C283.774 123.243 283.274 120.884 283.028 120.722C282.781 120.56 281.514 119.919 281.514 119.919Z" fill="#FFA9A8"/>
<path d="M297.633 152.594C301.787 152.594 305.154 149.227 305.154 145.074C305.154 140.92 301.787 137.553 297.633 137.553C293.479 137.553 290.112 140.92 290.112 145.074C290.112 149.227 293.479 152.594 297.633 152.594Z" fill="white"/>
<path d="M299.865 145.869L299.26 146.482L301.154 148.383L301.767 147.771C301.785 147.753 301.8 147.732 301.81 147.708C301.82 147.684 301.825 147.659 301.825 147.633C301.825 147.608 301.82 147.582 301.81 147.559C301.8 147.535 301.785 147.514 301.767 147.496L300.147 145.869C300.108 145.835 300.058 145.816 300.006 145.816C299.954 145.816 299.904 145.835 299.865 145.869ZM293.999 143.616C294.225 144.679 295.541 146.067 296.112 146.616C296.682 147.165 298.048 148.475 299.105 148.728C299.734 148.923 300.416 148.86 300.999 148.552L299.098 146.679C298.915 146.778 298.429 146.883 297.577 145.926L297.436 145.785L296.95 145.306L296.816 145.165C295.858 144.313 295.957 143.82 296.063 143.637L294.175 141.75C293.879 142.326 293.816 142.994 293.999 143.616ZM294.936 140.94L294.323 141.546L296.224 143.447L296.83 142.834C296.849 142.816 296.863 142.795 296.873 142.772C296.884 142.748 296.889 142.723 296.889 142.697C296.889 142.671 296.884 142.646 296.873 142.622C296.863 142.599 296.849 142.577 296.83 142.56L295.21 140.94C295.193 140.921 295.171 140.907 295.148 140.897C295.124 140.886 295.099 140.881 295.073 140.881C295.047 140.881 295.022 140.886 294.998 140.897C294.975 140.907 294.954 140.921 294.936 140.94Z" fill="#1E8CEB"/>
<path d="M235.015 39.8721L214.022 61.4349L235.015 50.6747V39.8721Z" fill="#D7F5FF"/>
<path d="M117.117 161.559H56.1464C54.7268 161.559 53.576 162.71 53.576 164.129V204.53C53.576 205.949 54.7268 207.1 56.1464 207.1H117.117C118.536 207.1 119.687 205.949 119.687 204.53V164.129C119.687 162.71 118.536 161.559 117.117 161.559Z" fill="#1E8CEB"/>
<path d="M104.539 164.172C104.237 164.094 103.92 164.096 103.619 164.179C103.318 164.261 103.044 164.421 102.824 164.643C102.604 164.864 102.445 165.14 102.365 165.441C102.284 165.743 102.284 166.06 102.363 166.362C102.442 166.673 102.604 166.957 102.833 167.183C103.061 167.409 103.347 167.568 103.659 167.643C103.887 167.701 104.124 167.714 104.357 167.68C104.59 167.646 104.814 167.567 105.016 167.446C105.218 167.326 105.394 167.167 105.535 166.978C105.675 166.79 105.777 166.576 105.835 166.348C105.893 166.12 105.905 165.883 105.872 165.65C105.838 165.417 105.758 165.193 105.638 164.991C105.518 164.789 105.359 164.613 105.17 164.472C104.982 164.332 104.767 164.229 104.539 164.172Z" fill="white"/>
<path d="M110.251 164.172C109.871 164.074 109.47 164.105 109.109 164.258C108.748 164.411 108.447 164.678 108.253 165.019C108.059 165.359 107.982 165.754 108.034 166.143C108.086 166.531 108.265 166.892 108.542 167.169C108.819 167.446 109.18 167.625 109.568 167.677C109.957 167.729 110.352 167.652 110.692 167.458C111.033 167.264 111.3 166.963 111.453 166.602C111.606 166.241 111.637 165.84 111.539 165.46C111.463 165.148 111.302 164.863 111.075 164.636C110.848 164.409 110.563 164.248 110.251 164.172Z" fill="white"/>
<path d="M117.243 166.348C117.34 165.966 117.308 165.563 117.153 165.2C116.998 164.838 116.728 164.537 116.385 164.344C116.042 164.15 115.645 164.074 115.254 164.129C114.864 164.183 114.503 164.364 114.226 164.645C113.949 164.925 113.771 165.288 113.721 165.679C113.671 166.07 113.751 166.466 113.948 166.807C114.146 167.148 114.45 167.415 114.814 167.566C115.177 167.717 115.581 167.744 115.962 167.643C116.272 167.562 116.554 167.399 116.78 167.171C117.005 166.943 117.165 166.659 117.243 166.348Z" fill="white"/>
<path d="M115.687 169.573H57.583C56.879 169.573 56.3084 170.144 56.3084 170.848V202.924C56.3084 203.628 56.879 204.199 57.583 204.199H115.687C116.391 204.199 116.962 203.628 116.962 202.924V170.848C116.962 170.144 116.391 169.573 115.687 169.573Z" fill="white"/>
<path d="M82.5682 175.235H63.0758V177.911H82.5682V175.235Z" fill="#1E8CEB"/>
<path d="M87.0188 180.713H63.0758V183.389H87.0188V180.713Z" fill="#1E8CEB"/>
<path d="M110.194 186.192H63.0758V188.868H110.194V186.192Z" fill="#1E8CEB"/>
<path d="M110.194 191.671H63.0758V194.347H110.194V191.671Z" fill="#1E8CEB"/>
<path d="M110.194 197.15H63.0758V199.826H110.194V197.15Z" fill="#1E8CEB"/>
<path d="M137.884 63.4068H104.906C103.91 63.4068 103.103 64.2139 103.103 65.2096V78.2022C103.103 79.1978 103.91 80.0049 104.906 80.0049H137.884C138.879 80.0049 139.686 79.1978 139.686 78.2022V65.2096C139.686 64.2139 138.879 63.4068 137.884 63.4068Z" fill="#1E8CEB"/>
<path d="M125.736 80.0119L134.792 86.4343L132.856 80.0119H125.736Z" fill="#1E8CEB"/>
<path d="M113.124 73.2586C114.038 73.2586 114.779 72.5177 114.779 71.6037C114.779 70.6898 114.038 69.9489 113.124 69.9489C112.21 69.9489 111.469 70.6898 111.469 71.6037C111.469 72.5177 112.21 73.2586 113.124 73.2586Z" fill="white"/>
<path d="M121.391 73.2586C122.305 73.2586 123.046 72.5177 123.046 71.6037C123.046 70.6898 122.305 69.9489 121.391 69.9489C120.477 69.9489 119.736 70.6898 119.736 71.6037C119.736 72.5177 120.477 73.2586 121.391 73.2586Z" fill="white"/>
<path d="M129.651 73.2586C130.565 73.2586 131.306 72.5177 131.306 71.6037C131.306 70.6898 130.565 69.9489 129.651 69.9489C128.738 69.9489 127.997 70.6898 127.997 71.6037C127.997 72.5177 128.738 73.2586 129.651 73.2586Z" fill="white"/>
<path d="M200.53 52.6254C209.148 52.6254 216.135 45.6387 216.135 37.0201C216.135 28.4016 209.148 21.4149 200.53 21.4149C191.911 21.4149 184.925 28.4016 184.925 37.0201C184.925 45.6387 191.911 52.6254 200.53 52.6254Z" fill="#1E8CEB"/>
<path d="M203.551 32.4709H192.002C191.683 32.4709 191.424 32.7295 191.424 33.0484V40.9918C191.424 41.3108 191.683 41.5693 192.002 41.5693H203.551C203.87 41.5693 204.128 41.3108 204.128 40.9918V33.0484C204.128 32.7295 203.87 32.4709 203.551 32.4709Z" fill="white"/>
<path d="M208.882 40.344L205.361 39.2806C205.242 39.2442 205.138 39.1704 205.064 39.0702C204.991 38.97 204.951 38.8487 204.952 38.7243V35.3652C204.951 35.2409 204.991 35.1196 205.064 35.0194C205.138 34.9191 205.242 34.8453 205.361 34.8089L208.882 33.7456C208.968 33.7206 209.06 33.716 209.148 33.7321C209.237 33.7482 209.321 33.7846 209.393 33.8385C209.465 33.8924 209.524 33.9622 209.565 34.0426C209.606 34.123 209.627 34.2117 209.628 34.3019V39.7877C209.629 39.8783 209.608 39.9678 209.568 40.049C209.527 40.1301 209.469 40.2007 209.396 40.2548C209.323 40.309 209.239 40.3453 209.149 40.3608C209.06 40.3763 208.968 40.3705 208.882 40.344Z" fill="white"/>
<path d="M190.298 46.8508L186.481 55.3436L194.882 50.3155L190.298 46.8508Z" fill="#1E8CEB"/>
<path fill-rule="evenodd" clip-rule="evenodd" d="M241.395 214.48L254.486 205.931V227.571L241.395 214.48ZM211.783 204.269H254.381L233.085 218.177L211.783 204.269ZM211.621 227.663L211.656 205.945L224.769 214.508L211.621 227.663ZM233.078 219.917L240.339 215.177L252.888 227.726H213.269L225.818 215.177L233.078 219.917Z" fill="#1E8CEB"/>
<path d="M108.039 100.082H55.3788C54.9007 100.082 54.4421 100.272 54.1041 100.61C53.766 100.948 53.576 101.406 53.576 101.885V116.863C53.576 117.341 53.766 117.8 54.1041 118.138C54.4421 118.476 54.9007 118.666 55.3788 118.666H80.2232L87.6174 123.919L86.0329 118.666H108.039C108.518 118.666 108.976 118.476 109.314 118.138C109.652 117.8 109.842 117.341 109.842 116.863V101.885C109.842 101.406 109.652 100.948 109.314 100.61C108.976 100.272 108.518 100.082 108.039 100.082Z" stroke="#1E8CEB" stroke-miterlimit="10"/>
<path d="M83.1386 105.3H59.1956V107.976H83.1386V105.3Z" fill="#1E8CEB"/>
<path d="M106.314 110.779H59.1956V113.455H106.314V110.779Z" fill="#1E8CEB"/>
<path d="M215.529 69.9207C215.529 69.9207 218.677 70.484 217.065 75.7867C216.008 79.2725 212.755 85.4273 212.755 85.4273L206.502 82.9626L203.149 76.3923L215.529 69.9207Z" fill="#FFA9A8"/>
<path d="M195.636 97.6453L199.657 101.427C199.712 101.472 199.776 101.503 199.845 101.518C199.915 101.533 199.987 101.532 200.055 101.514C200.124 101.496 200.187 101.462 200.24 101.416C200.293 101.369 200.335 101.31 200.361 101.244L206.473 82.9837L212.727 85.4485L206.516 106.476C206.205 107.493 205.644 108.416 204.883 109.16C204.123 109.903 203.187 110.443 202.163 110.73C201.139 111.017 200.059 111.041 199.023 110.801C197.987 110.561 197.028 110.064 196.234 109.356L189.967 103.617L195.636 97.6453Z" fill="#FFA9A8"/>
<path d="M189.967 103.603L192.319 105.758L195.713 97.7086H195.607L189.967 103.603Z" fill="#F48989"/>
<path d="M205.015 78.3819L212.304 79.8581C212.738 79.9462 213.162 79.6652 213.25 79.2307L215.867 66.3103C215.955 65.8758 215.674 65.4521 215.239 65.3641L207.951 63.8879C207.516 63.7999 207.093 64.0808 207.005 64.5154L204.388 77.4357C204.3 77.8703 204.581 78.2939 205.015 78.3819Z" fill="#04457C"/>
<path d="M205.549 77.012L211.45 78.2072C211.683 78.2543 211.909 78.104 211.956 77.8715L214.284 66.3798C214.331 66.1473 214.181 65.9206 213.948 65.8735L208.047 64.6782C207.815 64.6312 207.588 64.7815 207.541 65.014L205.213 76.5057C205.166 76.7382 205.316 76.9649 205.549 77.012Z" fill="white"/>
<path d="M212.931 71.617L214.651 71.9606C215.261 72.0826 215.855 71.6867 215.977 71.0765L215.978 71.0696C216.1 70.4594 215.704 69.8659 215.094 69.7439L213.374 69.4003C212.764 69.2784 212.171 69.6742 212.049 70.2845L212.047 70.2914C211.925 70.9016 212.321 71.4951 212.931 71.617Z" fill="#FFA9A8"/>
<path d="M212.491 73.8244L214.211 74.168C214.821 74.2899 215.414 73.8941 215.536 73.2839L215.538 73.2769C215.66 72.6667 215.264 72.0732 214.654 71.9513L212.934 71.6077C212.324 71.4858 211.73 71.8816 211.609 72.4918L211.607 72.4987C211.485 73.1089 211.881 73.7024 212.491 73.8244Z" fill="#FFA9A8"/>
<path d="M212.05 76.0457L213.769 76.3893C214.379 76.5112 214.973 76.1154 215.095 75.5052L215.096 75.4983C215.218 74.888 214.822 74.2945 214.212 74.1726L212.493 73.829C211.882 73.7071 211.289 74.1029 211.167 74.7131L211.166 74.72C211.044 75.3302 211.44 75.9237 212.05 76.0457Z" fill="#FFA9A8"/>
<path d="M211.608 78.224L213.328 78.5676C213.938 78.6896 214.532 78.2937 214.654 77.6835L214.655 77.6766C214.777 77.0664 214.381 76.4729 213.771 76.3509L212.051 76.0074C211.441 75.8854 210.848 76.2813 210.726 76.8915L210.724 76.8984C210.602 77.5086 210.998 78.1021 211.608 78.224Z" fill="#FFA9A8"/>
<path d="M203.992 77.1574L205.545 77.4678C206.156 77.5898 206.749 77.194 206.871 76.5837L206.873 76.5768C206.994 75.9666 206.599 75.3731 205.988 75.2512L204.435 74.9407C203.824 74.8188 203.231 75.2146 203.109 75.8248L203.108 75.8317C202.986 76.4419 203.382 77.0354 203.992 77.1574Z" fill="#FFA9A8"/>
<path d="M202.368 246.05L217.924 251.099V253.5H195.213L195.741 246.05H202.368Z" fill="#203771"/>
<path d="M209.649 247.676L209.03 249.317" stroke="white" stroke-width="1.5" stroke-miterlimit="10" stroke-linecap="round"/>
<path d="M207.685 247.064L207.072 248.705" stroke="white" stroke-width="1.5" stroke-miterlimit="10" stroke-linecap="round"/>
<path d="M205.727 246.444L205.107 248.085" stroke="white" stroke-width="1.5" stroke-miterlimit="10" stroke-linecap="round"/>
<path d="M202.368 246.05L200.896 235.909H194.122L195.741 246.05H202.368Z" fill="#FFA9A8"/>
<path d="M148.2 246.05L132.644 251.099V253.5H155.355L154.827 246.05H148.2Z" fill="#203771"/>
<path d="M140.919 247.676L141.538 249.317" stroke="white" stroke-width="1.5" stroke-miterlimit="10" stroke-linecap="round"/>
<path d="M142.884 247.064L143.503 248.705" stroke="white" stroke-width="1.5" stroke-miterlimit="10" stroke-linecap="round"/>
<path d="M144.848 246.444L145.461 248.085" stroke="white" stroke-width="1.5" stroke-miterlimit="10" stroke-linecap="round"/>
<path d="M148.2 246.05L149.672 235.909H156.447L154.827 246.05H148.2Z" fill="#FFA9A8"/>
<path d="M181.53 81.6034L197.29 96.0397L188.572 105.194L175.897 88.7371L181.53 81.6034Z" fill="#4EB0F9"/>
<path d="M164.545 77.5824L151.954 82.4837V125.968H186.988L181.53 81.6034L170.798 77.5824H164.545Z" fill="#1E8CEB"/>
<path d="M160.63 67.7517L164.51 80.1176C164.725 80.8027 165.153 81.4014 165.732 81.8269C166.311 82.2523 167.01 82.4824 167.728 82.4837C168.183 82.4832 168.633 82.3906 169.052 82.2115C169.47 82.0324 169.848 81.7704 170.162 81.4415C170.477 81.1125 170.721 80.7233 170.882 80.2973C171.042 79.8713 171.114 79.4173 171.094 78.9627L170.848 73.5544L160.63 67.7517Z" fill="#FFA9A8"/>
<path d="M171.066 77.6669C163.615 77.1599 161.82 70.0192 161.82 70.0192L163.974 69.6249L170.883 73.5473L171.066 77.6669Z" fill="#F48989"/>
<path d="M178.178 57.3858C178.178 57.3858 181.34 63.3293 174.791 66.8433C169.157 69.8362 171.686 61.0266 172.601 60.1322C173.516 59.2379 174.552 58.1534 175.305 58.1182C176.281 57.9507 177.242 57.7058 178.178 57.3858Z" fill="#233770"/>
<path d="M159.897 55.083C159.897 55.083 154.475 55.5901 154.968 60.273C155.672 66.4912 162.129 72.5755 162.129 72.5755L161.32 66.787C161.32 66.787 161.193 62.8575 161.27 62.5617C161.125 61.1421 160.902 59.7315 160.601 58.3365C160.503 57.8435 159.897 55.083 159.897 55.083Z" fill="#233770"/>
<path d="M160.63 67.7517C159.823 67.5483 159.119 67.0558 158.652 66.3678C158.185 65.6798 157.986 64.8441 158.094 64.0194C158.461 61.0125 160.876 61.4068 161.672 63.0406C161.974 63.666 162.172 64.3369 162.256 65.0265L162.827 64.9631C162.827 64.9631 164.235 59.8365 166.172 58.6252C168.108 57.414 175.277 57.8858 176.692 58.4914C178.256 59.1956 178.136 71.6319 173.805 74.7938C169.474 77.9557 162.298 72.5896 160.63 67.7517Z" fill="#FFA9A8"/>
<path d="M159.876 61.7871C161.989 61.9984 162.256 65.0265 162.256 65.0265L163.136 64.9631C163.629 61.9984 166.221 58.9069 170.883 60.2097C175.545 61.5125 178.263 59.597 179.284 56.6887C179.284 56.6887 181.904 49.5339 176.038 44.8439C176.384 45.9861 176.435 47.1977 176.185 48.3649C176.185 48.3649 174.953 44.5481 171.608 44.8439C171.608 44.8439 172.707 46.3087 172.312 47.4072C171.918 48.5058 157.996 46.2523 159.918 55.0619L159.876 61.7871Z" fill="#233770"/>
<path d="M177.911 57.9491C178.207 55.4915 175.798 54.1957 175.798 54.1957C175.798 54.1957 176.411 55.6886 176.207 56.4562C175.814 55.8358 175.288 55.3108 174.667 54.9197C174.045 54.5286 173.344 54.2813 172.615 54.1957C172.951 54.5776 173.204 55.0252 173.358 55.5101C173.512 55.995 173.564 56.5067 173.509 57.0125C173.333 58.8012 171.249 60.097 169.714 59.942C170.862 60.5775 172.148 60.921 173.46 60.942C175.784 61.0617 177.615 60.3575 177.911 57.9491Z" fill="#2C4784"/>
<path d="M186.988 125.968L206.565 237.937H186.988L166.742 125.968H186.988Z" fill="#233770"/>
<path d="M170.566 125.968L162.517 237.937H143.975L151.954 125.968H170.566Z" fill="#233770"/>
<path d="M162.777 147.447H178.368V125.968H162.777V147.447Z" fill="#233770"/>
<path d="M184.234 129.292H159.763" stroke="#4D669E" stroke-miterlimit="10"/>
<path d="M147.947 106.87L144.721 111.997C144.466 112.403 144.345 112.88 144.376 113.359C144.406 113.838 144.586 114.295 144.89 114.666L157.918 131.694L153.13 136.891L135.989 117.764C135.112 116.845 134.56 115.664 134.418 114.401C134.275 113.138 134.55 111.863 135.201 110.772L140.081 102.596L147.947 106.87Z" fill="#FFA9A8"/>
<path d="M156.454 129.778L153.13 136.891L157.918 131.694L156.454 129.778Z" fill="#F48989"/>
<path d="M147.954 106.87L140.074 102.596L145.63 110.553L147.954 106.87Z" fill="#F48989"/>
<path d="M151.954 82.4837L138.813 101.779L148.552 108.131L151.954 101.779V82.4837Z" fill="#4EB0F9"/>
<path d="M159.087 130.602L152.545 137.792" stroke="#4D669E" stroke-miterlimit="10"/>
<path d="M181.559 131.236L187.037 137.348" stroke="#4D669E" stroke-miterlimit="10"/>
<path d="M172.728 132.426V145.067H167.798" stroke="#4D669E" stroke-miterlimit="10"/>
<path d="M176.256 125.968H169.974V129.292H176.256V125.968Z" stroke="#4D669E" stroke-miterlimit="10" stroke-linecap="round"/>
<path d="M192.974 178.608C194.341 182.274 195.098 186.14 195.213 190.051" stroke="#4D669E" stroke-miterlimit="10"/>
<path d="M203.537 234.416H188.22" stroke="#4D669E" stroke-miterlimit="10"/>
<path d="M161.108 234.416H146.207" stroke="#4D669E" stroke-miterlimit="10"/>
<path d="M150.721 179.84C150.017 183.2 149.635 186.619 149.58 190.051" stroke="#4D669E" stroke-miterlimit="10"/>
<path d="M194.622 96.1524L188.396 102.596" stroke="#1E8CEB" stroke-miterlimit="10"/>
<path d="M148.144 105.723L141.334 100.969" stroke="#1E8CEB" stroke-miterlimit="10"/>
<path d="M162.517 91.1102H156.475L157.27 98.096H161.58L162.517 91.1102Z" fill="#4EB0F9"/>
<path d="M204.495 65.4348L197.502 63.3997" stroke="#04457C" stroke-miterlimit="10"/>
<path d="M205.466 64.2307L203.192 60.0899" stroke="#04457C" stroke-miterlimit="10"/>
<path d="M204.664 66.9701L200.53 69.2517" stroke="#04457C" stroke-miterlimit="10"/>
<path d="M168.883 65.463C169.272 65.463 169.587 65.1478 169.587 64.7588C169.587 64.3699 169.272 64.0546 168.883 64.0546C168.494 64.0546 168.179 64.3699 168.179 64.7588C168.179 65.1478 168.494 65.463 168.883 65.463Z" fill="#233770"/>
<path d="M175.545 65.3644C175.879 65.3644 176.15 65.0933 176.15 64.7588C176.15 64.4243 175.879 64.1532 175.545 64.1532C175.21 64.1532 174.939 64.4243 174.939 64.7588C174.939 65.0933 175.21 65.3644 175.545 65.3644Z" fill="#233770"/>
<path d="M172.319 65.0264C172.991 66.0116 173.598 67.0396 174.136 68.1038C174.404 68.808 172.319 68.7165 172.319 68.7165V65.0264Z" fill="#F48989"/>
<path d="M174.481 70.1883H169.552C169.552 70.1883 172.284 74.8501 174.481 70.1883Z" fill="white"/>
<path d="M167.312 63.1884C168.153 62.9065 169.04 62.787 169.925 62.8363" stroke="#233770" stroke-miterlimit="10"/>
<path d="M177.087 63.1884C176.249 62.906 175.364 62.7865 174.481 62.8363" stroke="#233770" stroke-miterlimit="10"/>
<path d="M160.876 63.8293C160.876 63.8293 160.207 62.942 159.566 63.1884C158.925 63.4349 158.756 65.5616 160.052 66.3151C160.052 66.3151 159.348 64.9489 159.714 64.2025C159.827 64.0071 160.008 63.8607 160.223 63.7917C160.438 63.7227 160.671 63.7361 160.876 63.8293Z" fill="#F48989"/>
<path d="M337.572 31.4607L338.299 29.0194H339.007L337.933 32.1049H337.467L337.572 31.4607ZM336.903 29.0194L337.628 31.4607L337.738 32.1049H337.267L336.199 29.0194H336.903ZM339.901 29.812V32.1049H339.289V29.812H339.901ZM339.251 29.2144C339.251 29.1254 339.282 29.0519 339.344 28.994C339.406 28.9361 339.49 28.9071 339.594 28.9071C339.697 28.9071 339.78 28.9361 339.842 28.994C339.906 29.0519 339.937 29.1254 339.937 29.2144C339.937 29.3034 339.906 29.3768 339.842 29.4348C339.78 29.4927 339.697 29.5217 339.594 29.5217C339.49 29.5217 339.406 29.4927 339.344 29.4348C339.282 29.3768 339.251 29.3034 339.251 29.2144ZM341.76 31.6048V28.8499H342.374V32.1049H341.821L341.76 31.6048ZM340.31 30.986V30.9415C340.31 30.7663 340.33 30.6074 340.37 30.4647C340.409 30.3206 340.467 30.197 340.544 30.0938C340.62 29.9907 340.714 29.9109 340.825 29.8544C340.937 29.7979 341.064 29.7696 341.207 29.7696C341.341 29.7696 341.458 29.7979 341.559 29.8544C341.66 29.9109 341.746 29.9914 341.817 30.0959C341.889 30.1991 341.947 30.3213 341.991 30.4626C342.035 30.6024 342.066 30.7557 342.086 30.9224V31.0199C342.066 31.1795 342.035 31.3279 341.991 31.4649C341.947 31.6019 341.889 31.722 341.817 31.8252C341.746 31.9269 341.66 32.006 341.559 32.0625C341.457 32.119 341.338 32.1473 341.203 32.1473C341.06 32.1473 340.933 32.1183 340.821 32.0604C340.711 32.0025 340.618 31.9212 340.541 31.8167C340.467 31.7121 340.409 31.5892 340.37 31.448C340.33 31.3067 340.31 31.1527 340.31 30.986ZM340.921 30.9415V30.986C340.921 31.0806 340.928 31.1689 340.942 31.2509C340.957 31.3328 340.982 31.4056 341.016 31.4691C341.051 31.5313 341.097 31.58 341.152 31.6154C341.208 31.6493 341.277 31.6662 341.357 31.6662C341.462 31.6662 341.548 31.6429 341.616 31.5963C341.684 31.5483 341.735 31.4826 341.771 31.3992C341.807 31.3159 341.828 31.2198 341.834 31.111V30.8334C341.83 30.7444 341.817 30.6646 341.796 30.5939C341.776 30.5219 341.746 30.4604 341.707 30.4096C341.669 30.3587 341.621 30.3192 341.563 30.2909C341.506 30.2626 341.439 30.2485 341.362 30.2485C341.282 30.2485 341.215 30.2669 341.158 30.3036C341.102 30.3389 341.056 30.3877 341.02 30.4498C340.986 30.512 340.961 30.5855 340.944 30.6702C340.929 30.7536 340.921 30.844 340.921 30.9415ZM343.907 32.1473C343.729 32.1473 343.569 32.119 343.428 32.0625C343.286 32.0046 343.166 31.9248 343.067 31.823C342.97 31.7213 342.895 31.6034 342.843 31.4691C342.791 31.3335 342.764 31.1894 342.764 31.0368V30.9521C342.764 30.7783 342.789 30.6194 342.839 30.4753C342.888 30.3312 342.959 30.2061 343.05 30.1002C343.144 29.9942 343.257 29.913 343.39 29.8565C343.522 29.7986 343.672 29.7696 343.839 29.7696C344.001 29.7696 344.145 29.7964 344.271 29.8501C344.397 29.9038 344.502 29.9801 344.587 30.079C344.673 30.1779 344.738 30.2966 344.782 30.435C344.826 30.572 344.848 30.7246 344.848 30.8927V31.147H343.025V30.7402H344.248V30.6935C344.248 30.6088 344.232 30.5332 344.201 30.4668C344.172 30.399 344.126 30.3453 344.066 30.3057C344.005 30.2662 343.927 30.2464 343.832 30.2464C343.752 30.2464 343.683 30.2641 343.625 30.2994C343.567 30.3347 343.52 30.3841 343.483 30.4477C343.447 30.5113 343.421 30.5862 343.402 30.6723C343.385 30.7571 343.377 30.8504 343.377 30.9521V31.0368C343.377 31.1287 343.39 31.2134 343.415 31.2911C343.442 31.3688 343.479 31.4359 343.527 31.4925C343.577 31.549 343.636 31.5928 343.705 31.6238C343.776 31.6549 343.856 31.6705 343.945 31.6705C344.055 31.6705 344.157 31.6493 344.252 31.6069C344.348 31.5631 344.431 31.4974 344.5 31.4098L344.797 31.7319C344.749 31.8011 344.683 31.8675 344.6 31.9311C344.518 31.9947 344.419 32.047 344.303 32.0879C344.187 32.1275 344.055 32.1473 343.907 32.1473ZM345.098 30.9817V30.9372C345.098 30.7691 345.122 30.6144 345.17 30.4732C345.218 30.3305 345.288 30.2068 345.379 30.1023C345.471 29.9978 345.584 29.9165 345.718 29.8586C345.853 29.7993 346.007 29.7696 346.18 29.7696C346.354 29.7696 346.509 29.7993 346.645 29.8586C346.78 29.9165 346.894 29.9978 346.986 30.1023C347.079 30.2068 347.15 30.3305 347.198 30.4732C347.246 30.6144 347.27 30.7691 347.27 30.9372V30.9817C347.27 31.1485 347.246 31.3031 347.198 31.4458C347.15 31.5871 347.079 31.7107 346.986 31.8167C346.894 31.9212 346.781 32.0025 346.647 32.0604C346.512 32.1183 346.358 32.1473 346.185 32.1473C346.011 32.1473 345.856 32.1183 345.721 32.0604C345.586 32.0025 345.473 31.9212 345.379 31.8167C345.288 31.7107 345.218 31.5871 345.17 31.4458C345.122 31.3031 345.098 31.1485 345.098 30.9817ZM345.708 30.9372V30.9817C345.708 31.0778 345.716 31.1675 345.733 31.2509C345.75 31.3342 345.777 31.4077 345.814 31.4713C345.852 31.5334 345.901 31.5822 345.962 31.6175C346.023 31.6528 346.097 31.6705 346.185 31.6705C346.269 31.6705 346.342 31.6528 346.403 31.6175C346.464 31.5822 346.512 31.5334 346.549 31.4713C346.586 31.4077 346.613 31.3342 346.63 31.2509C346.648 31.1675 346.657 31.0778 346.657 30.9817V30.9372C346.657 30.844 346.648 30.7564 346.63 30.6745C346.613 30.5911 346.585 30.5177 346.547 30.4541C346.51 30.3891 346.462 30.3382 346.401 30.3015C346.34 30.2648 346.267 30.2464 346.18 30.2464C346.094 30.2464 346.021 30.2648 345.96 30.3015C345.901 30.3382 345.852 30.3891 345.814 30.4541C345.777 30.5177 345.75 30.5911 345.733 30.6745C345.716 30.7564 345.708 30.844 345.708 30.9372ZM337.168 36.0813H337.801C337.789 36.289 337.731 36.4734 337.63 36.6344C337.529 36.7955 337.389 36.9212 337.208 37.0116C337.029 37.1021 336.812 37.1473 336.56 37.1473C336.362 37.1473 336.184 37.1134 336.028 37.0456C335.871 36.9763 335.737 36.8774 335.625 36.7489C335.515 36.6203 335.431 36.4649 335.373 36.2827C335.315 36.1004 335.286 35.8963 335.286 35.6702V35.4562C335.286 35.2302 335.316 35.026 335.375 34.8438C335.436 34.6601 335.522 34.504 335.633 34.3754C335.747 34.2469 335.881 34.148 336.038 34.0788C336.195 34.0095 336.37 33.9749 336.564 33.9749C336.821 33.9749 337.038 34.0215 337.214 34.1148C337.392 34.208 337.53 34.3366 337.628 34.5005C337.726 34.6643 337.786 34.8508 337.806 35.0599H337.17C337.163 34.9356 337.138 34.8303 337.096 34.7442C337.053 34.6566 336.989 34.5909 336.903 34.5471C336.818 34.5019 336.705 34.4793 336.564 34.4793C336.458 34.4793 336.365 34.4991 336.286 34.5386C336.207 34.5782 336.141 34.6382 336.087 34.7187C336.033 34.7993 335.993 34.901 335.966 35.0239C335.941 35.1454 335.928 35.2881 335.928 35.452V35.6702C335.928 35.8299 335.94 35.9704 335.964 36.0919C335.988 36.212 336.025 36.3137 336.074 36.3971C336.125 36.479 336.19 36.5412 336.269 36.5836C336.35 36.6246 336.447 36.645 336.56 36.645C336.692 36.645 336.802 36.6238 336.888 36.5815C336.974 36.5391 337.04 36.4762 337.085 36.3929C337.132 36.3095 337.159 36.2057 337.168 36.0813ZM339.418 36.5878V35.5664C339.418 35.4929 339.406 35.4301 339.382 35.3778C339.358 35.3241 339.321 35.2824 339.27 35.2528C339.22 35.2231 339.156 35.2083 339.077 35.2083C339.009 35.2083 338.951 35.2203 338.901 35.2443C338.852 35.2669 338.814 35.3001 338.787 35.3439C338.76 35.3863 338.747 35.4364 338.747 35.4943H338.136C338.136 35.3969 338.159 35.3043 338.204 35.2167C338.249 35.1291 338.315 35.0521 338.401 34.9857C338.487 34.9179 338.59 34.865 338.708 34.8268C338.828 34.7887 338.963 34.7696 339.111 34.7696C339.289 34.7696 339.447 34.7993 339.586 34.8586C339.724 34.9179 339.833 35.0069 339.912 35.1256C339.993 35.2443 340.033 35.3926 340.033 35.5706V36.5518C340.033 36.6775 340.041 36.7807 340.056 36.8612C340.072 36.9403 340.094 37.0095 340.124 37.0689V37.1049H339.507C339.478 37.0427 339.455 36.965 339.439 36.8718C339.425 36.7771 339.418 36.6825 339.418 36.5878ZM339.499 35.7084L339.503 36.0538H339.162C339.081 36.0538 339.011 36.063 338.952 36.0813C338.893 36.0997 338.844 36.1258 338.806 36.1598C338.768 36.1922 338.739 36.2304 338.721 36.2742C338.704 36.318 338.696 36.366 338.696 36.4183C338.696 36.4706 338.708 36.5179 338.732 36.5603C338.756 36.6012 338.79 36.6337 338.836 36.6578C338.881 36.6804 338.934 36.6917 338.994 36.6917C339.086 36.6917 339.166 36.6733 339.234 36.6366C339.302 36.5998 339.354 36.5546 339.391 36.5009C339.429 36.4472 339.449 36.3964 339.45 36.3484L339.611 36.6069C339.589 36.6648 339.557 36.7249 339.518 36.787C339.48 36.8492 339.431 36.9078 339.372 36.9629C339.312 37.0166 339.241 37.0611 339.158 37.0964C339.074 37.1303 338.975 37.1473 338.861 37.1473C338.715 37.1473 338.583 37.1183 338.465 37.0604C338.347 37.0011 338.254 36.9198 338.185 36.8167C338.117 36.7121 338.083 36.5935 338.083 36.4607C338.083 36.3406 338.106 36.2339 338.151 36.1407C338.196 36.0474 338.263 35.969 338.35 35.9055C338.439 35.8405 338.55 35.7917 338.683 35.7592C338.816 35.7253 338.97 35.7084 339.145 35.7084H339.499ZM341.147 33.8499V37.1049H340.535V33.8499H341.147ZM342.296 33.8499V37.1049H341.684V33.8499H342.296Z" fill="#1362C9"/>
<path d="M329.489 25.1093V29.1122H328.127V23.9927H329.409L329.489 25.1093ZM331.032 23.9596L331.008 25.2229C330.942 25.2134 330.862 25.2056 330.767 25.1992C330.675 25.1898 330.592 25.1851 330.516 25.1851C330.324 25.1851 330.157 25.2103 330.015 25.2608C329.876 25.3081 329.759 25.379 329.665 25.4737C329.573 25.5683 329.504 25.6834 329.456 25.8191C329.412 25.9547 329.387 26.1093 329.381 26.2827L329.106 26.1976C329.106 25.8664 329.139 25.562 329.206 25.2844C329.272 25.0037 329.368 24.7592 329.494 24.551C329.623 24.3429 329.781 24.182 329.967 24.0684C330.153 23.9549 330.366 23.8981 330.606 23.8981C330.682 23.8981 330.759 23.9044 330.838 23.917C330.917 23.9265 330.981 23.9407 331.032 23.9596ZM330.994 28.4545C330.994 28.2526 331.063 28.0839 331.202 27.9482C331.344 27.8126 331.532 27.7448 331.765 27.7448C331.999 27.7448 332.185 27.8126 332.324 27.9482C332.466 28.0839 332.536 28.2526 332.536 28.4545C332.536 28.6564 332.466 28.8251 332.324 28.9607C332.185 29.0964 331.999 29.1642 331.765 29.1642C331.532 29.1642 331.344 29.0964 331.202 28.9607C331.063 28.8251 330.994 28.6564 330.994 28.4545ZM328.86 33.2232H330.062L331.832 38.2811L333.601 33.2232H334.803L332.314 40.1122H331.349L328.86 33.2232ZM328.212 33.2232H329.409L329.627 38.1533V40.1122H328.212V33.2232ZM334.254 33.2232H335.456V40.1122H334.036V38.1533L334.254 33.2232ZM339.378 38.9577V36.6771C339.378 36.5131 339.351 36.3727 339.298 36.256C339.244 36.1362 339.161 36.0431 339.047 35.9769C338.937 35.9106 338.793 35.8775 338.616 35.8775C338.465 35.8775 338.334 35.9043 338.224 35.9579C338.113 36.0084 338.028 36.0825 337.968 36.1803C337.908 36.275 337.878 36.3869 337.878 36.5163H336.516C336.516 36.2986 336.566 36.092 336.667 35.8964C336.768 35.7009 336.915 35.529 337.107 35.3807C337.299 35.2293 337.528 35.111 337.793 35.0258C338.061 34.9407 338.361 34.8981 338.692 34.8981C339.09 34.8981 339.443 34.9643 339.752 35.0968C340.061 35.2293 340.304 35.428 340.481 35.693C340.66 35.9579 340.75 36.2891 340.75 36.6866V38.8772C340.75 39.158 340.768 39.3882 340.802 39.568C340.837 39.7447 340.887 39.8992 340.954 40.0317V40.1122H339.577C339.511 39.9734 339.46 39.7999 339.425 39.5917C339.394 39.3804 339.378 39.169 339.378 38.9577ZM339.558 36.9941L339.567 37.7654H338.806C338.626 37.7654 338.47 37.7859 338.337 37.8269C338.205 37.8679 338.096 37.9262 338.011 38.0019C337.926 38.0745 337.863 38.1596 337.822 38.2574C337.784 38.3552 337.765 38.4625 337.765 38.5792C337.765 38.6959 337.792 38.8015 337.845 38.8962C337.899 38.9876 337.976 39.0602 338.077 39.1138C338.178 39.1643 338.296 39.1895 338.432 39.1895C338.637 39.1895 338.815 39.1485 338.967 39.0665C339.118 38.9845 339.235 38.8836 339.317 38.7637C339.402 38.6438 339.446 38.5303 339.449 38.423L339.809 39.0003C339.758 39.1296 339.689 39.2636 339.601 39.4024C339.515 39.5412 339.407 39.6721 339.274 39.7951C339.142 39.915 338.982 40.0144 338.796 40.0932C338.61 40.1689 338.389 40.2068 338.134 40.2068C337.809 40.2068 337.514 40.1421 337.249 40.0128C336.987 39.8803 336.779 39.6989 336.624 39.4687C336.473 39.2353 336.397 38.9703 336.397 38.6738C336.397 38.4057 336.448 38.1675 336.549 37.9593C336.65 37.7512 336.798 37.5761 336.994 37.4342C337.192 37.2891 337.44 37.1802 337.736 37.1077C338.033 37.032 338.377 36.9941 338.768 36.9941H339.558ZM343.163 36.1093V40.1122H341.801V34.9927H343.083L343.163 36.1093ZM344.706 34.9596L344.682 36.2229C344.616 36.2134 344.535 36.2056 344.441 36.1992C344.349 36.1898 344.266 36.1851 344.19 36.1851C343.998 36.1851 343.83 36.2103 343.689 36.2608C343.55 36.3081 343.433 36.379 343.338 36.4737C343.247 36.5683 343.178 36.6834 343.13 36.8191C343.086 36.9547 343.061 37.1093 343.054 37.2827L342.78 37.1976C342.78 36.8664 342.813 36.562 342.879 36.2844C342.946 36.0037 343.042 35.7592 343.168 35.551C343.297 35.3429 343.455 35.182 343.641 35.0684C343.827 34.9549 344.04 34.8981 344.28 34.8981C344.356 34.8981 344.433 34.9044 344.512 34.917C344.591 34.9265 344.655 34.9407 344.706 34.9596ZM346.788 34.9927V40.1122H345.42V34.9927H346.788ZM345.335 33.6585C345.335 33.4597 345.404 33.2957 345.543 33.1664C345.682 33.0371 345.868 32.9724 346.102 32.9724C346.332 32.9724 346.516 33.0371 346.655 33.1664C346.797 33.2957 346.868 33.4597 346.868 33.6585C346.868 33.8572 346.797 34.0212 346.655 34.1505C346.516 34.2799 346.332 34.3445 346.102 34.3445C345.868 34.3445 345.682 34.2799 345.543 34.1505C345.404 34.0212 345.335 33.8572 345.335 33.6585ZM330.89 49.9577V47.6771C330.89 47.5131 330.863 47.3727 330.81 47.256C330.756 47.1362 330.672 47.0431 330.559 46.9769C330.448 46.9106 330.305 46.8775 330.128 46.8775C329.977 46.8775 329.846 46.9043 329.735 46.9579C329.625 47.0084 329.54 47.0825 329.48 47.1803C329.42 47.275 329.39 47.3869 329.39 47.5163H328.027C328.027 47.2986 328.078 47.092 328.179 46.8964C328.28 46.7009 328.426 46.529 328.619 46.3807C328.811 46.2293 329.04 46.111 329.305 46.0258C329.573 45.9407 329.873 45.8981 330.204 45.8981C330.601 45.8981 330.955 45.9643 331.264 46.0968C331.573 46.2293 331.816 46.428 331.992 46.693C332.172 46.9579 332.262 47.2891 332.262 47.6866V49.8772C332.262 50.158 332.279 50.3882 332.314 50.568C332.349 50.7447 332.399 50.8992 332.466 51.0317V51.1122H331.089C331.022 50.9734 330.972 50.7999 330.937 50.5917C330.906 50.3804 330.89 50.169 330.89 49.9577ZM331.07 47.9941L331.079 48.7654H330.317C330.138 48.7654 329.982 48.7859 329.849 48.8269C329.717 48.8679 329.608 48.9262 329.523 49.0019C329.437 49.0745 329.374 49.1596 329.333 49.2574C329.295 49.3552 329.277 49.4625 329.277 49.5792C329.277 49.6959 329.303 49.8015 329.357 49.8962C329.411 49.9876 329.488 50.0602 329.589 50.1138C329.69 50.1643 329.808 50.1895 329.944 50.1895C330.149 50.1895 330.327 50.1485 330.478 50.0665C330.63 49.9845 330.746 49.8836 330.828 49.7637C330.914 49.6438 330.958 49.5303 330.961 49.423L331.321 50.0003C331.27 50.1296 331.201 50.2636 331.112 50.4024C331.027 50.5412 330.918 50.6721 330.786 50.7951C330.653 50.915 330.494 51.0144 330.308 51.0932C330.122 51.1689 329.901 51.2068 329.646 51.2068C329.321 51.2068 329.026 51.1421 328.761 51.0128C328.499 50.8803 328.291 50.6989 328.136 50.4687C327.985 50.2353 327.909 49.9703 327.909 49.6738C327.909 49.4057 327.96 49.1675 328.061 48.9593C328.161 48.7512 328.31 48.5761 328.505 48.4342C328.704 48.2891 328.952 48.1802 329.248 48.1077C329.545 48.032 329.888 47.9941 330.28 47.9941H331.07Z" fill="#1362C9"/>
<path d="M102.434 253.5C102.434 253.5 90.4624 243.641 90.6384 240.55C90.8145 237.458 94.0749 240.423 94.0749 240.423C94.0749 240.423 86.7582 229.353 88.3497 223.945C89.9412 218.536 96.3636 228.17 99.2297 237.867C99.2297 237.867 97.9903 231.346 100.504 230.881C104.258 230.177 105.849 253.5 105.849 253.5H102.434Z" fill="#268594"/>
<path d="M90.0251 223.428L89.5708 223.653L103.654 252.073L104.108 251.848L90.0251 223.428Z" fill="#37BDB4"/>
<path d="M115.504 253.5C115.504 253.5 127.475 245.106 127.299 242.444C127.123 239.782 123.863 242.339 123.863 242.339C123.863 242.339 131.18 232.888 129.588 228.254C127.997 223.621 121.567 231.888 118.708 240.141C118.708 240.141 119.948 234.571 117.433 234.177C113.68 233.578 109.687 253.486 109.687 253.486L115.504 253.5Z" fill="#268594"/>
<path d="M127.926 227.797L113.847 252.064L114.286 252.319L128.365 228.051L127.926 227.797Z" fill="#37BDB4"/>
<path d="M105.849 253.5C105.849 253.5 100.145 235.796 102.011 231.959C103.878 228.121 106.335 235.247 106.335 235.247C106.335 235.247 106.842 218.346 110.49 215.649C114.138 212.952 112.441 235.332 112.441 235.332C112.441 235.332 114.821 232.022 117.37 232.367C119.919 232.712 110.328 253.493 110.328 253.493L105.849 253.5Z" fill="#37BDB4"/>
<path d="M110.839 219.116L107.691 252.551L108.195 252.599L111.344 219.163L110.839 219.116Z" fill="#268594"/>
<path d="M289.753 253.5C289.753 253.5 273.176 239.902 273.443 235.585C273.711 231.269 278.197 235.409 278.197 235.409C278.197 235.409 268.07 220.093 270.274 212.607C272.479 205.121 281.366 218.508 285.323 231.888C285.323 231.888 283.612 222.867 287.084 222.219C292.281 221.255 294.478 253.514 294.478 253.514L289.753 253.5Z" fill="#268594"/>
<path d="M272.583 211.89L271.952 212.203L291.434 251.52L292.065 251.207L272.583 211.89Z" fill="#37BDB4"/>
<path d="M307.837 253.5C307.837 253.5 324.414 241.888 324.153 238.226C323.893 234.564 319.4 238.078 319.4 238.078C319.4 238.078 329.519 225.001 327.322 218.614C325.125 212.227 316.231 223.635 312.266 235.057C312.266 235.057 313.985 227.36 310.506 226.804C305.316 225.98 299.83 253.521 299.83 253.521L307.837 253.5Z" fill="#268594"/>
<path d="M325.024 217.943L305.549 251.512L306.158 251.865L325.633 218.297L325.024 217.943Z" fill="#37BDB4"/>
<path d="M294.478 253.5C294.478 253.5 286.584 229.008 289.168 223.698C291.753 218.388 295.154 228.247 295.154 228.247C295.154 228.247 295.858 204.896 300.907 201.135C305.957 197.375 303.605 228.367 303.605 228.367C303.605 228.367 306.893 223.79 310.414 224.262C313.935 224.733 300.64 253.5 300.64 253.5H294.478Z" fill="#37BDB4"/>
<path d="M301.4 205.915L297.043 252.174L297.745 252.24L302.101 205.981L301.4 205.915Z" fill="#268594"/>
<path d="M387.842 222.191H358.265C355.742 222.191 353.322 223.194 351.538 224.978C349.754 226.762 348.751 229.182 348.751 231.705V253.5H397.341V231.705C397.342 230.457 397.097 229.22 396.621 228.066C396.144 226.913 395.444 225.864 394.562 224.981C393.68 224.097 392.632 223.396 391.479 222.918C390.326 222.439 389.09 222.192 387.842 222.191Z" fill="#268594"/>
<path d="M355.99 233.951H341.561C340.312 233.951 339.075 234.196 337.921 234.673C336.767 235.15 335.718 235.851 334.834 236.733C333.951 237.616 333.25 238.665 332.772 239.819C332.294 240.972 332.047 242.209 332.047 243.458V253.5H365.504V243.458C365.504 242.209 365.258 240.972 364.78 239.819C364.302 238.665 363.601 237.616 362.717 236.733C361.834 235.851 360.785 235.15 359.631 234.673C358.476 234.196 357.239 233.951 355.99 233.951Z" fill="#37BDB4"/>
<path d="M339.984 246.261C339.156 246.162 338.39 245.773 337.822 245.163C337.727 245.288 337.601 245.387 337.457 245.45C337.313 245.513 337.155 245.538 336.998 245.522C336.104 245.395 335.59 243.761 335.442 243.261L336.146 243.071C336.371 243.867 336.85 244.782 337.118 244.824C337.223 244.824 337.336 244.733 337.512 244.444L337.759 244.029L338.075 244.388C338.428 244.782 339.484 245.761 340.259 245.522C340.808 245.353 341.188 244.522 341.35 243.12L342.054 243.205C341.85 244.923 341.35 245.93 340.47 246.198C340.312 246.242 340.148 246.263 339.984 246.261Z" fill="#268594"/>
<path d="M355.716 241.486C354.888 241.388 354.122 240.999 353.554 240.388C353.458 240.513 353.332 240.611 353.188 240.674C353.044 240.736 352.887 240.762 352.73 240.747C351.829 240.62 351.322 238.98 351.174 238.487L351.878 238.296C352.096 239.092 352.582 240.008 352.85 240.043C352.906 240.043 353.061 239.958 353.244 239.67L353.491 239.254L353.807 239.613C354.16 240.008 355.216 240.986 355.99 240.747C356.54 240.571 356.92 239.747 357.082 238.346L357.786 238.43C357.582 240.148 357.047 241.156 356.202 241.416C356.045 241.466 355.881 241.49 355.716 241.486Z" fill="#268594"/>
<path d="M351.962 250.902C351.136 250.802 350.371 250.416 349.8 249.81C349.703 249.933 349.577 250.029 349.433 250.09C349.289 250.152 349.132 250.177 348.977 250.162C348.075 250.043 347.568 248.402 347.413 247.902L348.117 247.712C348.336 248.507 348.822 249.423 349.089 249.465C349.146 249.465 349.3 249.381 349.484 249.085L349.73 248.669L350.047 249.029C350.399 249.43 351.455 250.402 352.23 250.162C352.779 249.993 353.16 249.162 353.322 247.761L354.026 247.846C353.829 249.564 353.322 250.571 352.448 250.838C352.29 250.882 352.127 250.904 351.962 250.902Z" fill="#268594"/>
<path d="M373.349 236.951C372.521 236.853 371.755 236.463 371.187 235.853C371.091 235.977 370.966 236.076 370.822 236.139C370.677 236.201 370.52 236.227 370.363 236.212C369.462 236.085 368.955 234.451 368.807 233.951L369.511 233.761C369.73 234.557 370.215 235.473 370.483 235.515C370.539 235.515 370.701 235.43 370.877 235.135L371.124 234.719L371.441 235.078C371.793 235.473 372.849 236.487 373.624 236.212C374.173 236.043 374.553 235.212 374.715 233.811L375.42 233.895C375.215 235.613 374.715 236.62 373.835 236.881C373.678 236.931 373.514 236.955 373.349 236.951Z" fill="#37BDB4"/>
<path d="M361.011 230.804C360.183 230.705 359.417 230.316 358.85 229.705C358.752 229.828 358.626 229.926 358.483 229.988C358.339 230.051 358.182 230.077 358.026 230.064C357.124 229.937 356.617 228.297 356.462 227.797L357.166 227.614C357.385 228.409 357.871 229.325 358.138 229.36C358.195 229.36 358.35 229.276 358.533 228.987L358.779 228.571L359.096 228.93C359.448 229.325 360.504 230.304 361.279 230.064C361.828 229.888 362.209 229.064 362.371 227.663L363.075 227.747C362.878 229.466 362.371 230.473 361.497 230.733C361.34 230.783 361.176 230.807 361.011 230.804Z" fill="#37BDB4"/>
<path d="M389.074 232.177C388.249 232.077 387.485 231.688 386.919 231.078C386.822 231.202 386.696 231.299 386.552 231.361C386.409 231.424 386.252 231.45 386.095 231.438C385.194 231.311 384.687 229.67 384.532 229.17L385.236 228.987C385.454 229.783 385.94 230.698 386.208 230.733C386.271 230.733 386.426 230.656 386.602 230.36L386.849 229.945L387.166 230.304C387.518 230.698 388.574 231.677 389.349 231.438C389.898 231.261 390.278 230.438 390.44 229.036L391.144 229.121C390.947 230.839 390.44 231.846 389.567 232.107C389.408 232.157 389.241 232.181 389.074 232.177Z" fill="#37BDB4"/>
<path d="M384.933 246.824C384.105 246.726 383.339 246.336 382.771 245.726C382.675 245.849 382.549 245.947 382.405 246.01C382.261 246.072 382.104 246.098 381.948 246.085C381.053 245.958 380.539 244.317 380.391 243.817L381.095 243.634C381.321 244.43 381.8 245.346 382.067 245.381C382.131 245.381 382.286 245.296 382.462 245L382.708 244.592L383.025 244.951C383.377 245.346 384.433 246.324 385.215 246.085C385.764 245.909 386.138 245.085 386.307 243.684L387.011 243.768C386.807 245.486 386.307 246.493 385.426 246.754C385.267 246.806 385.101 246.83 384.933 246.824Z" fill="#37BDB4"/>
<path d="M67.8362 253.5H32.6611V237.719C32.6611 235.892 33.3867 234.141 34.6783 232.849C35.9699 231.557 37.7217 230.832 39.5482 230.832H60.9491C62.7757 230.832 64.5274 231.557 65.819 232.849C67.1106 234.141 67.8362 235.892 67.8362 237.719V253.5Z" fill="#268594"/>
<path d="M79.9486 253.5H55.7239V246.226C55.7239 244.399 56.4495 242.647 57.7411 241.356C59.0327 240.064 60.7845 239.339 62.611 239.339H73.0544C74.881 239.339 76.6328 240.064 77.9244 241.356C79.2159 242.647 79.9416 244.399 79.9416 246.226V253.5H79.9486Z" fill="#37BDB4"/>
<path d="M74.2022 248.36C74.0805 248.358 73.9595 248.339 73.8431 248.303C73.1811 248.099 72.7797 247.36 72.6319 246.057L73.3361 245.972C73.4487 246.93 73.7023 247.522 74.0403 247.634C74.3783 247.747 75.2374 247.162 75.5191 246.838L75.836 246.479L76.0825 246.895C76.2022 247.092 76.2797 247.12 76.2797 247.12C76.5944 246.788 76.807 246.373 76.8923 245.923L77.5965 246.113C77.4909 246.486 77.0965 247.719 76.3853 247.817C76.2731 247.833 76.1589 247.821 76.0522 247.783C75.9456 247.745 75.8497 247.682 75.7726 247.599C75.3546 248.029 74.7987 248.298 74.2022 248.36Z" fill="#268594"/>
<path d="M62.8082 244.902C62.6864 244.9 62.5654 244.881 62.449 244.846C61.7871 244.641 61.3927 243.902 61.2378 242.599L61.942 242.515C62.0547 243.472 62.3152 244.064 62.6462 244.177C63.111 244.324 63.8434 243.705 64.1251 243.381L64.4419 243.022L64.6955 243.437C64.8152 243.634 64.8856 243.662 64.8926 243.662C65.2018 243.326 65.4136 242.913 65.5053 242.465L66.2095 242.655C66.1039 243.029 65.7095 244.261 64.9983 244.36C64.8863 244.372 64.7728 244.359 64.6666 244.321C64.5605 244.284 64.4643 244.222 64.3856 244.141C63.9657 244.573 63.4071 244.842 62.8082 244.902Z" fill="#268594"/>
<path d="M65.5264 251.726C65.4047 251.724 65.2837 251.705 65.1673 251.669C64.5053 251.465 64.111 250.726 63.9561 249.423L64.6603 249.338C64.7729 250.296 65.0335 250.888 65.3645 251C65.8292 251.148 66.5616 250.529 66.8433 250.205L67.1602 249.845L67.4137 250.261C67.5334 250.458 67.6038 250.486 67.6109 250.486C67.92 250.15 68.1318 249.736 68.2236 249.289L68.9278 249.479C68.8221 249.852 68.4278 251.085 67.7236 251.183C67.6105 251.197 67.4958 251.184 67.3884 251.146C67.281 251.108 67.1837 251.046 67.1039 250.965C66.684 251.396 66.1254 251.666 65.5264 251.726Z" fill="#268594"/>
<path d="M50.0409 241.613C49.9194 241.614 49.7985 241.598 49.6818 241.564C49.0198 241.353 48.6255 240.62 48.4705 239.318L49.1747 239.233C49.2874 240.191 49.548 240.775 49.8789 240.888C50.3367 241.036 51.0761 240.416 51.3578 240.099L51.6747 239.74L51.9211 240.149C52.0479 240.353 52.1183 240.381 52.1183 240.381C52.4334 240.048 52.6481 239.633 52.738 239.184L53.4422 239.367C53.3366 239.747 52.9422 240.979 52.231 241.078C52.1191 241.089 52.0063 241.075 51.9004 241.037C51.7945 240.999 51.6982 240.939 51.6183 240.86C51.1957 241.286 50.6381 241.552 50.0409 241.613Z" fill="#37BDB4"/>
<path d="M58.9773 237.163C58.8553 237.165 58.7338 237.146 58.6182 237.106C57.9562 236.902 57.5548 236.17 57.4069 234.867L58.1111 234.782C58.2238 235.74 58.4773 236.325 58.8154 236.437C59.1534 236.55 60.0125 235.966 60.2942 235.649L60.6111 235.289L60.8575 235.698C60.9021 235.791 60.97 235.871 61.0547 235.93C61.3706 235.596 61.5834 235.178 61.6674 234.726L62.3716 234.916C62.266 235.289 61.8716 236.529 61.1604 236.627C61.0485 236.638 60.9358 236.623 60.83 236.586C60.7242 236.548 60.6279 236.488 60.5477 236.409C60.1268 236.834 59.572 237.1 58.9773 237.163Z" fill="#37BDB4"/>
<path d="M38.675 238.156C38.5512 238.157 38.428 238.14 38.3088 238.106C37.6469 237.895 37.2525 237.163 37.0976 235.86L37.8018 235.775C37.9145 236.733 38.168 237.318 38.506 237.43C38.9708 237.578 39.7032 236.958 39.9848 236.642L40.3088 236.282L40.5552 236.691C40.675 236.895 40.7524 236.923 40.7524 236.923C41.0616 236.587 41.2734 236.173 41.3651 235.726L42.0693 235.909C41.9637 236.289 41.5693 237.522 40.8651 237.62C40.7532 237.632 40.64 237.619 40.534 237.581C40.428 237.543 40.3318 237.482 40.2524 237.402C39.8291 237.827 39.2719 238.094 38.675 238.156Z" fill="#37BDB4"/>
<path d="M41.6538 248.789C41.5323 248.79 41.4114 248.773 41.2947 248.74C40.6327 248.529 40.2313 247.796 40.0764 246.493L40.7806 246.409C40.8933 247.367 41.1468 247.958 41.4848 248.064C41.9496 248.219 42.682 247.592 42.9707 247.275L43.2876 246.916L43.534 247.324C43.6538 247.529 43.7312 247.557 43.7312 247.557C44.0431 247.223 44.2553 246.808 44.3439 246.36L45.0481 246.543C44.9425 246.923 44.5411 248.155 43.8369 248.254C43.7247 248.269 43.6105 248.258 43.5038 248.22C43.3972 248.182 43.3013 248.119 43.2242 248.036C42.8034 248.46 42.2485 248.727 41.6538 248.789Z" fill="#37BDB4"/>
<path d="M142.031 22.8656C140.244 20.9874 137.932 19.6918 135.397 19.1479C132.861 18.6039 130.221 18.8369 127.82 19.8164C127.82 19.8164 123.842 15.1193 119.264 16.9995C119.264 16.9995 114.18 8.12654 101.3 7.25333C87.8075 6.3449 81.2091 16.908 81.2091 16.908C81.2091 16.908 67.8291 13.0067 62.5758 22.8656H142.031Z" fill="#B2E7FE"/>
</svg>
